<?xml version="1.0" ?><!DOCTYPE svg  PUBLIC '-//W3C//DTD SVG 1.1//EN'  'http://www.w3.org/Graphics/SVG/1.1/DTD/svg11.dtd'><svg id="Layer_1" style="enable-background:new 0 0 512 512;" version="1.1" viewBox="0 0 512 512" xml:space="preserve" xmlns="http://www.w3.org/2000/svg" xmlns:xlink="http://www.w3.org/1999/xlink"><style type="text/css">
	.st0{fill:#F8AA92;}
	.st1{fill:#4CB6AC;}
	.st2{fill:#F48FB1;}
	.st3{fill:#263238;}
</style><g><g id="XMLID_129_"><polygon class="st0" id="XMLID_58_" points="407.2,328.9 436.4,460.2 310.2,433.1    "/><path class="st1" d="M94.2,217.2l99.1-99.1l216,216c0,0-21.4,75.9-99.1,99.1L94.2,217.2z" id="XMLID_30_"/><path class="st2" d="M193.3,118.9l-31.2-31.2c-14.4-14.4-37.7-14.4-52,0l-46.6,46.6c-14.4,14.4-14.4,37.7,0,52     l31.2,31.2L193.3,118.9z" id="XMLID_56_"/><g id="XMLID_716_"><g id="XMLID_111_"><path class="st3" d="M463,461.4l-144.7-31.2l-246-246c-18.4-18.4-18.4-48.4,0-66.8l46.7-46.7       c18.4-18.4,48.4-18.4,66.8,0l246,246L463,461.4z M328.4,411.5l108,23.3l-23.3-108L171.4,85c-5.1-5.1-11.8-7.9-19-7.9       c-7.2,0-13.9,2.8-19,7.9l-46.7,46.7c-10.5,10.5-10.5,27.5,0,38L328.4,411.5z" id="XMLID_648_"/></g><g id="XMLID_140_"><path class="st3" d="M326,430.7l-5.3-19.7l2.7,9.8l-2.7-9.8c2.7-0.8,67.3-19.3,92.2-92.6l19.3,6.5       C403.6,408.9,329.1,429.8,326,430.7z" id="XMLID_647_"/></g><g id="XMLID_141_"><rect class="st3" height="140.2" id="XMLID_646_" transform="matrix(0.7071 0.7071 -0.7071 0.7071 158.8423 -66.731)" width="20.4" x="149.8" y="88.3"/></g><g id="XMLID_142_"><path class="st3" d="M396.3,432.9c20.3-5.1,33-17.8,38.1-38.1l21,59.1L396.3,432.9z" id="XMLID_1714_"/></g></g></g></g></svg>