<?xml version="1.0" encoding="iso-8859-1"?>
<!-- Generator: Adobe Illustrator 19.0.0, SVG Export Plug-In . SVG Version: 6.00 Build 0)  -->
<svg version="1.1" id="Layer_1" xmlns="http://www.w3.org/2000/svg" xmlns:xlink="http://www.w3.org/1999/xlink" x="0px" y="0px"
	 viewBox="0 0 511.999 511.999" style="enable-background:new 0 0 511.999 511.999;" xml:space="preserve">
<path style="fill:#43D3E8;" d="M467.594,44.403c-45.773-45.765-119.974-45.77-165.745,0l165.745,165.74
	C513.354,164.378,513.359,90.174,467.594,44.403z"/>
<g>
	<polygon style="fill:#242D3C;" points="10.14,501.852 93.002,501.852 10.14,418.985 	"/>
	<path style="fill:#242D3C;" d="M434.468,228.959h-0.044L283.034,77.573v-0.049l-14.336-14.336l-14.336,14.385L0,331.935v14.336
		h82.86v82.865h82.867v82.862h14.336l254.362-254.362l14.377-14.336L434.468,228.959z M186.015,477.376v-68.529h-82.867v-82.865
		H34.621L268.698,91.909l27.095,27.092l14.336,14.336l68.534,68.529l14.336,14.341l27.092,27.092L186.015,477.376z"/>
	
		<rect x="165.133" y="137.448" transform="matrix(-0.7071 -0.7071 0.7071 -0.7071 119.7414 557.2224)" style="fill:#242D3C;" width="20.285" height="232.727"/>
	
		<rect x="182.293" y="379.056" transform="matrix(-0.7072 -0.707 0.707 -0.7072 43.9979 823.107)" style="fill:#242D3C;" width="20.285" height="46.773"/>
	
		<rect x="303.882" y="170.722" transform="matrix(-0.7071 -0.7071 0.7071 -0.7071 337.5091 701.4279)" style="fill:#242D3C;" width="20.285" height="220.184"/>
	<polygon style="fill:#242D3C;" points="175.869,491.71 175.869,511.998 0,511.998 0,336.128 20.288,336.128 20.288,491.71 	"/>
	<path style="fill:#242D3C;" d="M301.832,30.052l-7.032,7.035c-0.049,0.044-0.092,0.087-0.136,0.133l-25.966,25.971l-14.336,14.385
		l14.336,14.336l27.095,27.092l14.336,14.336l68.534,68.529l14.336,14.341l27.092,27.092l14.339,14.336l14.377-14.336l25.974-25.969
		c0.046-0.049,0.092-0.092,0.136-0.141l7.032-7.032L301.832,30.052z M434.468,228.959h-0.044L283.034,77.573v-0.049l18.801-18.801
		l151.391,151.437L434.468,228.959z"/>
	<path style="fill:#242D3C;" d="M474.765,217.316l-14.346-14.344c41.738-41.743,41.738-109.652,0-151.396
		c-41.738-41.733-109.655-41.738-151.401,0L294.671,37.23c49.654-49.636,130.44-49.641,180.091,0
		C524.411,86.881,524.411,167.667,474.765,217.316z"/>
</g>
<path style="fill:#FFFFFF;" d="M430.753,81.244C418.45,68.951,402.104,62.18,384.719,62.18c-4.234,0-8.463,0.404-12.557,1.203
	l-3.873-19.914c5.371-1.047,10.9-1.577,16.43-1.577c22.805,0,44.247,8.886,60.378,25.009L430.753,81.244z"/>
<g>
</g>
<g>
</g>
<g>
</g>
<g>
</g>
<g>
</g>
<g>
</g>
<g>
</g>
<g>
</g>
<g>
</g>
<g>
</g>
<g>
</g>
<g>
</g>
<g>
</g>
<g>
</g>
<g>
</g>
</svg>
