<?xml version="1.0" encoding="iso-8859-1"?>
<!-- Generator: Adobe Illustrator 19.0.0, SVG Export Plug-In . SVG Version: 6.00 Build 0)  -->
<svg version="1.1" id="Capa_1" xmlns="http://www.w3.org/2000/svg" xmlns:xlink="http://www.w3.org/1999/xlink" x="0px" y="0px"
	 viewBox="0 0 442.91 442.91" style="enable-background:new 0 0 442.91 442.91;" xml:space="preserve">
<g>
	<path d="M13.98,196.395c8.45,4.662,19.232,1.457,23.894-6.993l9.907-17.775c0.583,0,1.457,0.291,2.331,0.291h119.469
		c0.583,0,1.457,0,2.04,0l8.742,17.483c3.205,6.119,9.324,9.616,15.735,9.616c2.622,0,5.245-0.583,7.867-2.04
		c8.742-4.371,11.947-14.861,7.576-23.602L128.495,9.616c-2.914-5.828-8.742-9.324-15.152-9.616c-6.411,0-12.53,3.497-15.735,9.033
		l-90.33,163.76C2.616,181.243,5.53,191.733,13.98,196.395z M112.178,54.781l41.668,82.171H66.721L112.178,54.781z M25.635,413.188
		l120.052-124.714H38.165c-9.616,0-17.483-7.867-17.483-17.483c0-9.616,7.867-17.483,17.483-17.483h148.608
		c6.993,0,13.404,4.079,16.026,10.781c2.622,6.411,1.457,13.987-3.497,18.94L79.251,407.943h107.522
		c9.616,0,17.483,7.867,17.483,17.483s-7.867,17.483-17.483,17.483H38.165c-6.993,0-13.404-4.079-16.026-10.781
		C19.225,425.718,20.682,418.433,25.635,413.188z M294.586,377.639V84.502c0-9.616,7.867-17.483,17.483-17.483
		s17.483,7.867,17.483,17.483V327.52l77.218-97.615c6.119-7.576,16.9-8.742,24.477-2.914c7.576,6.119,8.742,16.901,2.914,24.477
		L325.765,388.42c-3.497,4.371-8.45,6.702-13.695,6.702c-2.04,0-3.788-0.291-5.828-0.874
		C299.249,391.625,294.586,385.215,294.586,377.639z"/>
</g>
</svg>
