<?xml version="1.0" encoding="iso-8859-1"?>
<!-- Generator: Adobe Illustrator 19.0.0, SVG Export Plug-In . SVG Version: 6.00 Build 0)  -->
<svg version="1.1" id="Capa_1" xmlns="http://www.w3.org/2000/svg" xmlns:xlink="http://www.w3.org/1999/xlink" x="0px" y="0px"
	 viewBox="0 0 511.994 511.994" style="enable-background:new 0 0 511.994 511.994;" xml:space="preserve">
<g>
	<path style="fill:#C03A2B;" d="M257.043,459.029c-70.065,0-132.414-26.483-132.414-26.483s39.724,79.448,132.414,79.448
		s132.414-79.448,132.414-79.448S327.107,459.029,257.043,459.029"/>
	<path style="fill:#C03A2B;" d="M162.289,99.683c-22.484,11.829-42.09,26.862-45.842,44.35c-0.768,3.566-0.291,7.247,1.183,10.584
		c5.694,12.844,25.388,48.41,68.793,48.41c0,0,33.748-14.089,61.14-17.09c5.138-0.565,10.328,1.024,14.071,4.581
		c5.482,5.217,15.819,12.509,30.72,12.509c0,0,22.802,3.681,44.138-17.655c0,0,15.881-13.453,36.052-21.177
		c18.75-7.186,28.116-28.487,20.966-47.245c-8.686-22.775-30.482-46.336-83.5-46.336h-25.432
		C242.099,70.614,199.886,79.909,162.289,99.683"/>
</g>
<g>
	<path style="fill:#8E261E;" d="M274.698,97.098c-4.882,0-8.828-3.946-8.828-8.828c0-52.983-45.259-70.444-47.192-71.168
		c-4.555-1.695-6.894-6.762-5.217-11.326c1.686-4.555,6.718-6.903,11.299-5.244c0.583,0.212,58.765,22.175,58.765,87.737
		C283.525,93.152,279.579,97.098,274.698,97.098"/>
	<path style="fill:#8E261E;" d="M275.87,132.658c-12.826,0-25.697-4.184-33.607-11.396c-3.602-3.284-3.858-8.863-0.565-12.465
		c3.284-3.619,8.872-3.884,12.465-0.574c8.863,8.068,31.779,9.684,40.642,0.424c3.363-3.531,8.942-3.646,12.482-0.274
		c3.513,3.372,3.646,8.96,0.274,12.482C299.74,129.03,287.823,132.658,275.87,132.658"/>
</g>
<path style="fill:#F9EBB0;" d="M322.127,388.076c-1.095,0.141-2.163,0.335-3.293,0.335c-14.627,0-26.483-11.864-26.483-26.483
	c0-7.512,3.16-14.257,8.183-19.076c-2.595,0.847-5.305,1.421-8.183,1.421c-14.627,0-26.483-11.864-26.483-26.483
	c0-14.009,10.911-25.362,24.682-26.306c-4.326-4.714-7.027-10.937-7.027-17.832c0-14.627,11.855-26.483,26.483-26.483
	c1.615,0,3.169,0.194,4.705,0.468c4.122-25.724,10.161-44.544,14.848-56.249c-19.059,14.513-37.208,11.644-37.208,11.644
	c-14.892,0-25.229-7.3-30.711-12.509c-2.737-2.604-6.259-4.131-9.958-4.555l-15.245,1.695
	c-24.611,4.776-50.017,15.369-50.017,15.369c-0.936,0-1.81-0.106-2.728-0.141c7.821,13.621,20.383,45.003,20.383,106.072
	c0,0,10.664,123.586-79.448,123.586c0,0,62.349,26.483,132.414,26.483c70.073,0,132.414-26.483,132.414-26.483
	C352.926,432.549,332.958,412.228,322.127,388.076"/>
<g>
</g>
<g>
</g>
<g>
</g>
<g>
</g>
<g>
</g>
<g>
</g>
<g>
</g>
<g>
</g>
<g>
</g>
<g>
</g>
<g>
</g>
<g>
</g>
<g>
</g>
<g>
</g>
<g>
</g>
</svg>
