<?xml version="1.0" encoding="iso-8859-1"?>
<!-- Generator: Adobe Illustrator 19.0.0, SVG Export Plug-In . SVG Version: 6.00 Build 0)  -->
<svg version="1.1" id="Capa_1" xmlns="http://www.w3.org/2000/svg" xmlns:xlink="http://www.w3.org/1999/xlink" x="0px" y="0px"
	 viewBox="0 0 512 512" style="enable-background:new 0 0 512 512;" xml:space="preserve">
<path style="fill:#3EAF91;" d="M437.005,50.269V35.447c0-5.5-4.5-10-10-10H251.483c-5.5,0-10,4.5-10,10v14.821L437.005,50.269z"/>
<path style="opacity:0.1;enable-background:new    ;" d="M269,50.268V35.447c0-5.5,4.5-10,10-10h-27.517c-5.5,0-10,4.5-10,10v14.821
	H269z"/>
<path style="fill:#FFBB4A;" d="M489.885,85.658c0.046-0.386,0.076-0.777,0.076-1.175l0.001-24.213c0-5.5-4.5-10-10-10
	l-281.437-0.002c-5.5,0-10,4.5-10,10v24.215c0,0.398,0.03,0.789,0.076,1.175H489.885z"/>
<path style="opacity:0.1;enable-background:new    ;" d="M221.639,85.658c-0.046-0.386-0.076-0.777-0.076-1.175V60.268
	c0-5.499,4.498-9.997,9.996-10h-33.033c-5.5,0-10,4.5-10,10v24.215c0,0.398,0.03,0.789,0.076,1.175
	C188.602,85.658,221.639,85.658,221.639,85.658z"/>
<path style="fill:#FFBB4A;" d="M191.362,127.016l11.057,155.868c30.698,22.346,50.693,58.548,50.693,99.338v38.528
	c0,17.16-3.482,33.778-10.352,49.393c-1.919,4.373-6.246,7.193-11.019,7.193h167.61c-16.188-10.379-26.924-28.517-26.924-49.172
	c0-32.246,26.142-58.387,58.389-58.387c9.184,0,17.868,2.126,25.599,5.904l25.201-248.666L191.362,127.016L191.362,127.016z"/>
<path style="opacity:0.1;enable-background:new    ;" d="M191.362,127.016l11.057,155.868c12.905,9.394,23.916,21.235,32.347,34.84
	l-13.528-190.708L191.362,127.016L191.362,127.016z"/>
<path style="fill:#FF9F3D;" d="M504.5,122.016c0,2.75-2.25,5-5,5H173.775c-2.75,0-5-2.25-5-5V90.658c0-2.75,2.25-5,5-5H499.5
	c2.75,0,5,2.25,5,5V122.016z"/>
<g style="opacity:0.1;">
	<path d="M198.275,122.016V90.658c0-2.75,2.25-5,5-5h-29.501c-2.75,0-5,2.25-5,5v31.358c0,2.75,2.25,5,5,5h29.501
		C200.525,127.016,198.275,124.766,198.275,122.016z"/>
</g>
<circle style="fill:#3EAF91;" cx="430.82" cy="428.169" r="58.39"/>
<g>
	<circle style="fill:#86D5B5;" cx="430.82" cy="428.169" r="21.894"/>
	<path style="fill:#86D5B5;" d="M170.27,167.167H90.343c-2.75,0-3.875,1.949-2.5,4.33l25.871,44.808h33.185l25.872-44.808
		C174.145,169.116,173.02,167.167,170.27,167.167z"/>
</g>
<g>
	<path style="fill:#3EAF91;" d="M127.346,216.305l-4.548-44.165c-0.282-2.735-2.762-4.974-5.512-4.974H90.343
		c-2.75,0-3.875,1.949-2.5,4.33l25.871,44.808h13.632V216.305z"/>
	<path style="fill:#3EAF91;" d="M166.17,264.763H94.439C44.168,280.145,7.5,326.979,7.5,382.222v38.528
		c0,17.16,3.483,33.778,10.347,49.393c1.923,4.373,6.25,7.193,11.023,7.193h202.873c4.772,0,9.1-2.82,11.019-7.193
		c6.869-15.616,10.352-32.234,10.352-49.393v-38.528C253.112,326.979,216.445,280.145,166.17,264.763z"/>
</g>
<path style="opacity:0.1;enable-background:new    ;" d="M121.955,264.763H94.439C44.168,280.145,7.5,326.979,7.5,382.222v38.528
	c0,17.16,3.483,33.778,10.347,49.393c1.923,4.373,6.25,7.193,11.023,7.193h27.5c-4.772,0-9.1-2.82-11.023-7.193
	C38.483,454.527,35,437.909,35,420.75v-38.528C35,326.973,71.676,280.138,121.955,264.763z"/>
<path style="fill:#3EAF91;" d="M162.392,235.351v-14.045c0-2.75-2.25-5-5-5h-54.174c-2.75,0-5,2.25-5,5v14.045H162.392z"/>
<path style="fill:#86D5B5;" d="M178.486,259.932c0.707,2.657-0.964,4.832-3.714,4.832H85.839c-2.75,0-4.395-2.167-3.655-4.816
	l5.523-19.781c0.74-2.649,3.595-4.816,6.345-4.816h72.891c2.75,0,5.579,2.174,6.286,4.832L178.486,259.932z"/>
<g style="opacity:0.1;">
	<path d="M109.536,259.947l5.523-19.781c0.74-2.649,3.595-4.816,6.345-4.816H94.052c-2.75,0-5.605,2.167-6.345,4.816l-5.523,19.781
		c-0.74,2.649,0.905,4.816,3.655,4.816h27.352C110.441,264.763,108.796,262.596,109.536,259.947z"/>
</g>
<path d="M499.5,78.158h-2.039l0.001-17.888c0-9.649-7.851-17.5-17.5-17.5h-35.457v-7.322c0-9.649-7.851-17.5-17.5-17.5H251.483
	c-9.649,0-17.5,7.851-17.5,17.5v7.32h-35.459c-9.649,0-17.5,7.851-17.5,17.5v17.89h-7.25c-6.893,0-12.5,5.607-12.5,12.5v31.358
	c0,6.893,5.607,12.5,12.5,12.5h10.601l9.507,134.021c-2.675-1.502-5.407-2.912-8.194-4.226c0.582-1.995,0.616-4.164,0.045-6.308
	l-5.257-19.75c-1.322-4.966-5.619-8.897-10.585-10.049v-6.898c0-6.084-4.371-11.16-10.136-12.269l19.509-33.789
	c2.001-3.467,2.113-7.414,0.297-10.559c-1.815-3.145-5.289-5.022-9.292-5.022h-52.985H90.343c-4.003,0-7.477,1.877-9.292,5.022
	c-1.589,2.752-1.702,6.118-0.365,9.238c0.192,0.446,0.412,0.887,0.662,1.32l19.509,33.789c-5.767,1.108-10.139,6.185-10.139,12.269
	v6.983c-4.778,1.253-8.898,5.077-10.234,9.861l-5.523,19.781c-0.604,2.162-0.591,4.353-0.015,6.368
	C30.705,285.151,0,330.158,0,382.222v38.528c0,18.2,3.694,35.833,10.981,52.413c3.118,7.092,10.14,11.674,17.888,11.674H79
	c4.142,0,7.5-3.358,7.5-7.5s-3.358-7.5-7.5-7.5H28.87c-1.801,0-3.433-1.064-4.157-2.71C18.268,452.461,15,436.858,15,420.75v-38.528
	c0-51.483,33.916-95.189,80.577-109.958h69.455c46.663,14.77,80.581,58.475,80.581,109.958v38.528
	c0,16.114-3.269,31.716-9.719,46.379c-0.722,1.645-2.351,2.707-4.151,2.707H123c-4.142,0-7.5,3.358-7.5,7.5s3.358,7.5,7.5,7.5
	h274.264c9.835,5.845,21.306,9.215,33.554,9.215c36.329,0,65.886-29.557,65.886-65.887c0-24.079-12.99-45.172-32.324-56.666
	l24.018-236.982H499.5c6.893,0,12.5-5.607,12.5-12.5V90.658C512,83.765,506.393,78.158,499.5,78.158z M248.983,35.447
	c0-1.355,1.145-2.5,2.5-2.5h175.522c1.355,0,2.5,1.145,2.5,2.5v7.322l-180.522-0.001V35.447z M90.72,257.263l4.024-14.413h71.434
	l3.836,14.413H90.72z M154.892,223.805v4.045h-49.174v-4.045H154.892z M142.568,208.805h-8.455l-3.516-34.138h31.682
	L142.568,208.805z M115.518,174.667l3.516,34.138h-0.99l-19.71-34.138H115.518z M449.949,365.12
	c-6.059-1.842-12.479-2.842-19.132-2.842c-14.278,0-27.865,4.494-39.294,12.995c-3.323,2.472-4.014,7.171-1.541,10.494
	c2.472,3.324,7.169,4.013,10.494,1.541c8.82-6.561,19.313-10.03,30.341-10.03c28.059,0,50.886,22.828,50.886,50.887
	s-22.827,50.887-50.886,50.887c-28.061,0-50.889-22.828-50.889-50.887c0-5.104,0.752-10.138,2.234-14.962
	c1.217-3.959-1.006-8.155-4.966-9.372c-3.956-1.216-8.155,1.005-9.372,4.966c-1.922,6.253-2.896,12.77-2.896,19.369
	c0,15.797,5.593,30.309,14.896,41.672H251.033c6.357-15.599,9.58-32.093,9.58-49.086v-38.528c0-42.007-19.996-79.414-50.952-103.258
	l-10.247-144.448H473.32L449.949,365.12z M497,119.516H176.275V93.158H394c4.143,0,7.5-3.358,7.5-7.5s-3.357-7.5-7.5-7.5H196.025
	v-17.89c0-1.355,1.145-2.5,2.5-2.5l281.437,0.002c1.355,0,2.5,1.145,2.5,2.499l-0.001,17.889H436c-4.143,0-7.5,3.358-7.5,7.5
	s3.357,7.5,7.5,7.5h61V119.516z"/>
<path d="M430.817,457.56c16.208,0,29.393-13.187,29.393-29.396c0-16.208-13.186-29.395-29.393-29.395
	c-16.208,0-29.395,13.187-29.395,29.395C401.423,444.373,414.609,457.56,430.817,457.56z M430.817,413.769
	c7.936,0,14.393,6.458,14.393,14.395c0,7.938-6.457,14.396-14.393,14.396c-7.938,0-14.395-6.458-14.395-14.396
	C416.423,420.227,422.88,413.769,430.817,413.769z"/>
<path d="M277.97,232.418c3.541,2.142,8.154,1.007,10.298-2.538c9.608-15.893,26.417-25.38,44.963-25.38
	c24.897,0,45.787,17.427,51.15,40.72l-0.272-0.273c-2.929-2.928-7.678-2.929-10.606,0c-2.93,2.929-2.93,7.678-0.001,10.607
	l13.5,13.501c1.407,1.407,3.314,2.197,5.304,2.197c1.989,0,3.897-0.79,5.304-2.197l13.5-13.501
	c2.929-2.929,2.929-7.678-0.001-10.607c-2.928-2.929-7.677-2.928-10.606,0l-0.737,0.738c-5.401-31.849-33.17-56.185-66.533-56.185
	c-23.844,0-45.45,12.194-57.799,32.62C273.288,225.664,274.425,230.274,277.97,232.418z"/>
<path d="M265.304,265.513l0.872-0.872c3.809,33.633,32.42,59.857,67.055,59.857c24.56,0,47.206-13.361,59.101-34.871
	c2.004-3.625,0.69-8.188-2.934-10.193s-8.189-0.691-10.193,2.934c-9.254,16.734-26.87,27.129-45.974,27.129
	c-26.162,0-47.911-19.237-51.858-44.309l0.323,0.323c1.465,1.464,3.385,2.197,5.304,2.197c1.919,0,3.839-0.732,5.304-2.197
	c2.929-2.929,2.929-7.678,0-10.607l-13.5-13.5c-2.93-2.929-7.678-2.929-10.607,0l-13.5,13.5c-2.929,2.929-2.929,7.678,0,10.607
	C257.625,268.442,262.374,268.442,265.304,265.513z"/>
<g>
</g>
<g>
</g>
<g>
</g>
<g>
</g>
<g>
</g>
<g>
</g>
<g>
</g>
<g>
</g>
<g>
</g>
<g>
</g>
<g>
</g>
<g>
</g>
<g>
</g>
<g>
</g>
<g>
</g>
</svg>
