<?xml version="1.0" encoding="iso-8859-1"?>
<!-- Generator: Adobe Illustrator 19.0.0, SVG Export Plug-In . SVG Version: 6.00 Build 0)  -->
<svg xmlns="http://www.w3.org/2000/svg" xmlns:xlink="http://www.w3.org/1999/xlink" version="1.1" id="Capa_1" x="0px" y="0px" viewBox="0 0 512 512" style="enable-background:new 0 0 512 512;" xml:space="preserve" width="512px" height="512px">
<g>
	<g>
		<path d="M403.975,172.436c-20.329-85.029-53.381-133.831-77.529-159.799c-13.741-14.774-36.303-16.861-52.48-4.848    c-12.391,9.2-17.559,24.807-14.096,39.098c-15.117-10.312-36.058-7.934-48.386,6.118c-12.206,13.918-10.993,35.371,2.705,47.824    l8.577,7.797c-3.024,0.286-16.864,2.637-28.898,5.601c-4.021,0.991-6.479,5.054-5.488,9.076s5.053,6.482,9.078,5.489    c11.199-2.759,21.191-4.38,25.458-5.072c3.396-0.552,6.804-0.171,9.858,1.097c30.55,12.681,65.451,49.777,78.887,76.098    c5.612,10.646,13.69,27.803,13.69,39.881c0,4.142,3.357,7.5,7.5,7.5c4.143,0,7.5-3.358,7.5-7.5c0-16.64-11.37-39.24-14.537-45.213    c-5.027-65.585-29.072-115.242-48.458-145.432c-6.388-9.947-3.95-23.266,5.55-30.32c10.033-7.448,24.026-6.147,32.553,3.021    c22.922,24.649,54.353,71.214,73.925,153.072c0.962,4.028,5.011,6.515,9.038,5.55    C402.453,180.512,404.939,176.465,403.975,172.436z M278.653,82.451c11.48,22.358,22.594,50.992,28.578,85.214    c-12.829-16.418-28.09-31.645-44.913-43.361l-38.036-34.576c-7.686-6.985-8.367-19.023-1.517-26.832    c7.829-8.926,21.535-9.901,30.55-2.172L278.653,82.451z" fill="#ff0080"/>
	</g>
</g>
<g>
	<g>
		<path d="M411.927,213.907c-0.11-0.864-0.412-3.127-0.953-6.57c-0.644-4.091-4.475-6.892-8.575-6.244    c-4.092,0.644-6.888,4.482-6.244,8.574c3.093,19.651,16.209,68.834-6.086,132.254c-18.078,51.418-16.058,47.125-24.3,63.509    c-9.052,18.099-4.384,32.263-5.655,78.471c0,7.222-5.876,13.098-13.098,13.098h-81.974c-4.143,0-7.5,3.357-7.5,7.5    c0,4.143,3.357,7.5,7.5,7.5h81.974c15.494,0,28.099-12.604,28.099-28.099c1.05-49.522-2.834-58.82,4.638-72.859    c6.717-12.642,7.257-15.187,24.468-64.145C419.179,304.345,421.843,258.369,411.927,213.907z" fill="#ff0080"/>
	</g>
</g>
<g>
	<g>
		<path d="M270.355,302.514l-2.076-58.613c-0.262-7.431-3.002-14.692-7.715-20.447l-26.923-32.865    c-7.243-8.84-19.603-11.805-30.053-7.214c-21.76,9.563-39.542,15.048-48.789,15.048c-14.091,0-38.566-18.184-13.951-42.8    c5.987-5.988,14.308-11.419,24.728-16.143c3.773-1.71,5.445-6.154,3.735-9.927c-1.711-3.773-6.157-5.446-9.927-3.735    c-12.069,5.47-21.875,11.929-29.144,19.199c-33.559,33.558-3.977,68.407,24.559,68.407c14.63,0,37.889-8.872,54.824-16.315    c4.313-1.895,9.419-0.667,12.413,2.987l26.922,32.865c2.645,3.228,4.182,7.301,4.329,11.471l2.076,58.615    c0.09,2.541-0.956,4.959-2.871,6.634c-22.246,19.481-20.998,18.341-21.441,18.802c-5.708,5.964-14.779,6.878-21.564,2.18    c-5.056-4.274-13.773-6.821-15.785-17.325c-5.984-31.232-14.585-57.69-15.687-60.229c-12.459-28.7-36.616-41.273-61.542-32.037    c-8.849,3.279-19.318,8.711-21.739,21.714c-1.631,8.757,0.649,19.305,3.814,33.945c0.876,4.031,8.579,40.341,10.034,73.257    c0.618,13.986,6.08,27.43,15.379,37.855c16.367,18.35,28.299,35.469,57.036,73.819c9.523,12.772,8.047,20.154,8.191,20.711    c0,16.337,13.292,29.628,29.628,29.628h11.222c4.143,0,7.5-3.357,7.5-7.5c0-4.143-3.357-7.5-7.5-7.5h-11.222    c-8.065,0-14.628-6.562-14.628-14.628c-0.211-0.954,1.64-12.504-11.167-29.677c-27.472-36.657-40.727-55.622-57.866-74.838    c-7.006-7.854-11.12-17.988-11.586-28.532c-1.511-34.15-9.457-71.612-10.366-75.809c-6.254-28.926-6.478-32.834,8.484-38.379    c25.706-9.529,39.083,15.918,42.533,23.859c0.747,1.879,8.944,26.862,14.75,57.163c3.427,17.884,17.99,23.263,21.977,26.834    c12.788,8.854,29.844,7.208,40.695-3.884l20.731-18.14C267.697,316.31,270.606,309.582,270.355,302.514z" fill="#ff0080"/>
	</g>
</g>
<g>
</g>
<g>
</g>
<g>
</g>
<g>
</g>
<g>
</g>
<g>
</g>
<g>
</g>
<g>
</g>
<g>
</g>
<g>
</g>
<g>
</g>
<g>
</g>
<g>
</g>
<g>
</g>
<g>
</g>
</svg>
