<svg width="24" height="24" xmlns="http://www.w3.org/2000/svg">

 <g>
  <title>background</title>
  <rect fill="none" id="canvas_background" height="402" width="582" y="-1" x="-1"/>
 </g>
 <g>
  <title>Layer 1</title>
  <path stroke="null" fill="#2ea4ed" id="svg_1" d="m21.359133,4.739807c0.282045,0.282045 0.282045,0.74431 0,1.026355l-5.655313,5.649907c-0.282045,0.281144 -0.282045,0.74431 0,1.027256l5.65261,5.651709c0.282045,0.282045 0.282045,0.74431 0,1.027256l-2.059017,2.051808c-0.282946,0.281144 -0.746112,0.281144 -1.029058,0l-5.650808,-5.650808c-0.282045,-0.282045 -0.746112,-0.282045 -1.028157,0l-5.655313,5.647203c-0.282045,0.282045 -0.746112,0.282045 -1.028157,0l-2.056314,-2.054511c-0.282045,-0.282045 -0.282045,-0.74431 0,-1.027256l5.657115,-5.649005c0.282045,-0.281144 0.282045,-0.74431 0,-1.027256l-5.65261,-5.65261c-0.282946,-0.282045 -0.282946,-0.745211 0,-1.027256l2.058116,-2.052709c0.283847,-0.281144 0.746112,-0.281144 1.029058,0.000901l5.649907,5.649907c0.282946,0.282946 0.746112,0.282946 1.028157,0.000901l5.655313,-5.647203c0.281144,-0.281144 0.74431,-0.281144 1.028157,0l2.056314,2.055413z"/>
 </g>
</svg>