<svg width="24" height="24" xmlns="http://www.w3.org/2000/svg"><path fill="none" d="M-1-1h582v402H-1z"/><g><path stroke="null" fill="#2ea4ed" d="M21.36 4.74a.728.728 0 0 1 0 1.026l-5.656 5.65a.73.73 0 0 0 0 1.027l5.652 5.652a.73.73 0 0 1 0 1.027l-2.059 2.052a.733.733 0 0 1-1.029 0l-5.65-5.65a.73.73 0 0 0-1.029 0L5.934 21.17a.73.73 0 0 1-1.028 0L2.85 19.116a.73.73 0 0 1 0-1.027l5.657-5.65a.73.73 0 0 0 0-1.027L2.854 5.76a.728.728 0 0 1 0-1.027L4.912 2.68a.732.732 0 0 1 1.03 0l5.65 5.65a.73.73 0 0 0 1.027.002l5.656-5.648a.732.732 0 0 1 1.028 0l2.056 2.056z"/></g></svg>