<svg width="64" height="64" xmlns="http://www.w3.org/2000/svg"><path fill="none" d="M-1-1h582v402H-1z"/><g><path fill="#2ea4ed" class="st0" d="M24.5 22.9h3v24h-3zM30.5 22.9h3v24h-3zM36.5 22.9h3v24h-3zM12.5 13.9h39v3h-39z"/><path fill="#2ea4ed" d="M39.4 15.4h-2.8v-3c0-.9-.7-1.6-1.6-1.6h-6c-.9 0-1.6.7-1.6 1.6v3h-2.8v-3c0-2.4 2-4.4 4.4-4.4h6c2.4 0 4.4 2 4.4 4.4v3" class="st0"/><path fill="#2ea4ed" d="M41 55.9H23c-2.4 0-4.5-2-4.7-4.4l-2.8-36 3-.2 2.8 36c.1.9.9 1.6 1.7 1.6h18c.9 0 1.7-.8 1.7-1.6l2.8-36 3 .2-2.8 36c-.2 2.5-2.3 4.4-4.7 4.4" class="st0"/></g></svg>